<?xml version="1.0" encoding="UTF-8" standalone="no"?>
<!DOCTYPE svg PUBLIC "-//W3C//DTD SVG 1.1//EN"
 "http://www.w3.org/Graphics/SVG/1.1/DTD/svg11.dtd">
<!-- Generated by graphviz version 2.47.0 (20210316.0004)
 -->
<!-- Title: dependencies Pages: 1 -->
<svg width="504pt" height="287pt"
 viewBox="0.00 0.00 504.00 287.00" xmlns="http://www.w3.org/2000/svg" xmlns:xlink="http://www.w3.org/1999/xlink">
<g id="graph0" class="graph" transform="scale(1 1) rotate(0) translate(4 283)">
<title>dependencies</title>
<polygon fill="white" stroke="transparent" points="-4,4 -4,-283 500,-283 500,4 -4,4"/>
<text text-anchor="start" x="227.01" y="-42.4" font-family="Times-12" font-weight="bold" font-size="14.00">Legend</text>
<polygon fill="#ffffb3" stroke="transparent" points="14,-10 14,-30 34,-30 34,-10 14,-10"/>
<text text-anchor="start" x="37.63" y="-15.4" font-family="Times-12" font-size="14.00"> &#160;Declarations</text>
<polygon fill="#8dd3c7" stroke="transparent" points="127,-10 127,-30 147,-30 147,-10 127,-10"/>
<text text-anchor="start" x="150.73" y="-15.4" font-family="Times-12" font-size="14.00"> &#160;Module</text>
<polygon fill="#80b1d3" stroke="transparent" points="213,-10 213,-30 233,-30 233,-10 213,-10"/>
<text text-anchor="start" x="236.78" y="-15.4" font-family="Times-12" font-size="14.00"> &#160;Bootstrap</text>
<polygon fill="#fdb462" stroke="transparent" points="310,-10 310,-30 330,-30 330,-10 310,-10"/>
<text text-anchor="start" x="333.67" y="-15.4" font-family="Times-12" font-size="14.00"> &#160;Providers</text>
<polygon fill="#fb8072" stroke="transparent" points="406,-10 406,-30 426,-30 426,-10 406,-10"/>
<text text-anchor="start" x="429.73" y="-15.4" font-family="Times-12" font-size="14.00"> &#160;Exports</text>
<g id="clust1" class="cluster">
<title>cluster_AppModule</title>
<polygon fill="none" stroke="black" stroke-dasharray="1,5" points="20,-146 20,-271 378,-271 378,-146 20,-146"/>
</g>
<g id="clust3" class="cluster">
<title>cluster_AppModule_imports</title>
<polygon fill="none" stroke="black" points="166,-154 166,-206 370,-206 370,-154 166,-154"/>
</g>
<g id="clust6" class="cluster">
<title>cluster_AppModule_providers</title>
<polygon fill="none" stroke="black" points="28,-154 28,-206 158,-206 158,-154 28,-154"/>
</g>
<g id="clust7" class="cluster">
<title>cluster_PostModule</title>
<polygon fill="none" stroke="black" stroke-dasharray="1,5" points="38,-70 38,-138 318,-138 318,-70 38,-70"/>
</g>
<g id="clust12" class="cluster">
<title>cluster_PostModule_providers</title>
<polygon fill="none" stroke="black" points="46,-78 46,-130 310,-130 310,-78 46,-78"/>
</g>
<g id="clust13" class="cluster">
<title>cluster_UserModule</title>
<polygon fill="none" stroke="black" stroke-dasharray="1,5" points="326,-70 326,-138 476,-138 476,-70 326,-70"/>
</g>
<g id="clust18" class="cluster">
<title>cluster_UserModule_providers</title>
<polygon fill="none" stroke="black" points="334,-78 334,-130 468,-130 468,-78 334,-78"/>
</g>
<!-- PostModule -->
<g id="node1" class="node">
<title>PostModule</title>
<polygon fill="#8dd3c7" stroke="black" points="257.67,-198 254.67,-202 233.67,-202 230.67,-198 174.33,-198 174.33,-162 257.67,-162 257.67,-198"/>
<text text-anchor="middle" x="216" y="-175.8" font-family="Times,serif" font-size="14.00">PostModule</text>
</g>
<!-- AppModule -->
<g id="node3" class="node">
<title>AppModule</title>
<polygon fill="#8dd3c7" stroke="black" points="257.66,-263 254.66,-267 233.66,-267 230.66,-263 174.34,-263 174.34,-227 257.66,-227 257.66,-263"/>
<text text-anchor="middle" x="216" y="-240.8" font-family="Times,serif" font-size="14.00">AppModule</text>
</g>
<!-- PostModule&#45;&gt;AppModule -->
<g id="edge1" class="edge">
<title>PostModule&#45;&gt;AppModule</title>
<path fill="none" stroke="black" d="M216,-198.11C216,-198.11 216,-216.99 216,-216.99"/>
<polygon fill="black" stroke="black" points="212.5,-216.99 216,-226.99 219.5,-216.99 212.5,-216.99"/>
</g>
<!-- UserModule -->
<g id="node2" class="node">
<title>UserModule</title>
<polygon fill="#8dd3c7" stroke="black" points="361.98,-198 358.98,-202 337.98,-202 334.98,-198 276.02,-198 276.02,-162 361.98,-162 361.98,-198"/>
<text text-anchor="middle" x="319" y="-175.8" font-family="Times,serif" font-size="14.00">UserModule</text>
</g>
<!-- UserModule&#45;&gt;AppModule -->
<g id="edge2" class="edge">
<title>UserModule&#45;&gt;AppModule</title>
<path fill="none" stroke="black" d="M319,-198.11C319,-217.34 319,-245 319,-245 319,-245 267.89,-245 267.89,-245"/>
<polygon fill="black" stroke="black" points="267.89,-241.5 257.89,-245 267.89,-248.5 267.89,-241.5"/>
</g>
<!-- AppService -->
<g id="node4" class="node">
<title>AppService</title>
<ellipse fill="#fdb462" stroke="black" cx="93" cy="-180" rx="56.74" ry="18"/>
<text text-anchor="middle" x="93" y="-175.8" font-family="Times,serif" font-size="14.00">AppService</text>
</g>
<!-- AppService&#45;&gt;AppModule -->
<g id="edge3" class="edge">
<title>AppService&#45;&gt;AppModule</title>
<path fill="none" stroke="black" d="M93,-198.11C93,-217.34 93,-245 93,-245 93,-245 164.01,-245 164.01,-245"/>
<polygon fill="black" stroke="black" points="164.01,-248.5 174.01,-245 164.01,-241.5 164.01,-248.5"/>
</g>
<!-- PostService -->
<g id="node5" class="node">
<title>PostService</title>
<ellipse fill="#fdb462" stroke="black" cx="111" cy="-104" rx="56.76" ry="18"/>
<text text-anchor="middle" x="111" y="-99.8" font-family="Times,serif" font-size="14.00">PostService</text>
</g>
<!-- PostService&#45;&gt;PostModule -->
<g id="edge4" class="edge">
<title>PostService&#45;&gt;PostModule</title>
<path fill="none" stroke="black" d="M167.64,-104C174.96,-104 179.97,-104 179.97,-104 179.97,-104 179.97,-151.99 179.97,-151.99"/>
<polygon fill="black" stroke="black" points="176.47,-151.99 179.97,-161.99 183.47,-151.99 176.47,-151.99"/>
</g>
<!-- UserService -->
<g id="node6" class="node">
<title>UserService</title>
<ellipse fill="#fdb462" stroke="black" cx="244" cy="-104" rx="58.44" ry="18"/>
<text text-anchor="middle" x="244" y="-99.8" font-family="Times,serif" font-size="14.00">UserService</text>
</g>
<!-- UserService&#45;&gt;PostModule -->
<g id="edge5" class="edge">
<title>UserService&#45;&gt;PostModule</title>
<path fill="none" stroke="black" d="M221.81,-120.87C221.81,-120.87 221.81,-151.85 221.81,-151.85"/>
<polygon fill="black" stroke="black" points="218.31,-151.85 221.81,-161.85 225.31,-151.85 218.31,-151.85"/>
</g>
<!-- UserService&#45;&gt;UserModule -->
<g id="edge7" class="edge">
<title>UserService&#45;&gt;UserModule</title>
<path fill="none" stroke="black" d="M289.12,-115.54C289.12,-115.54 289.12,-151.83 289.12,-151.83"/>
<polygon fill="black" stroke="black" points="285.62,-151.83 289.12,-161.83 292.62,-151.83 285.62,-151.83"/>
</g>
<!-- AuthService -->
<g id="node7" class="node">
<title>AuthService</title>
<ellipse fill="#fdb462" stroke="black" cx="401" cy="-104" rx="59.11" ry="18"/>
<text text-anchor="middle" x="401" y="-99.8" font-family="Times,serif" font-size="14.00">AuthService</text>
</g>
<!-- AuthService&#45;&gt;UserModule -->
<g id="edge6" class="edge">
<title>AuthService&#45;&gt;UserModule</title>
<path fill="none" stroke="black" d="M351.84,-114.25C351.84,-114.25 351.84,-151.77 351.84,-151.77"/>
<polygon fill="black" stroke="black" points="348.34,-151.77 351.84,-161.77 355.34,-151.77 348.34,-151.77"/>
</g>
</g>
</svg>
